<?xml version="1.0" encoding="utf-8"?>
<!-- Generator: Adobe Illustrator 22.1.0, SVG Export Plug-In . SVG Version: 6.00 Build 0)  -->
<svg version="1.1" id="Слой_1" xmlns="http://www.w3.org/2000/svg" xmlns:xlink="http://www.w3.org/1999/xlink" x="0px" y="0px"
	 viewBox="0 0 206.1 138.2" enable-background="new 0 0 206.1 138.2" xml:space="preserve">
<title>Ресурс 2</title>
<g id="Слой_2_1_">
	<g id="Слой_1-2">
		<path fill="#FFFFFF" d="M44.7,132.3c0-3.6-2.3-5.7-6.2-5.7h-4.3v0.1h0.1c0.2,0,0.5,0.1,0.6,0.2c0.3,0.4,0.4,0.8,0.4,1.3v8.3
			c0.1,0.5-0.1,0.9-0.4,1.3c-0.2,0.2-0.4,0.2-0.6,0.2h-0.1v0.1h4.9C42.7,138,44.7,135.9,44.7,132.3L44.7,132.3z M36.8,126.8h1.7
			c2.9,0,4.6,2,4.6,5.5s-1.5,5.5-4,5.5h-2.3L36.8,126.8L36.8,126.8z M50.5,131l0.3,0.1l0,0c0.2,0.1,0.4,0.2,0.6,0.2l0,0
			c0.2,0,0.3-0.1,0.4-0.2c0.1-0.1,0.2-0.3,0.2-0.5c0-0.1-0.1-0.3-0.2-0.4c-0.1-0.1-0.3-0.2-0.4-0.2c-0.1,0-0.2,0-0.3,0
			c-1,0.1-1.9,0.6-2.5,1.3l-0.2,0.2v-1.4H48l-2,0.4v0.1h0.1c0.2,0,0.4,0.1,0.6,0.2c0.3,0.4,0.4,0.8,0.3,1.3v4.4
			c0,0.4-0.1,0.8-0.3,1.1c-0.1,0.1-0.3,0.2-0.5,0.2h-0.1v0.1h3.2V138l0,0c-0.2,0-0.4-0.1-0.6-0.2c-0.2-0.4-0.3-0.8-0.3-1.3v-4.4l0,0
			c0.3-0.4,0.7-0.7,1.1-0.9c0.1-0.1,0.3-0.1,0.5-0.1c0.2,0,0.4,0,0.6,0.1L50.5,131L50.5,131z M60,133.4c0-0.9-0.4-1.8-1-2.4
			c-0.6-0.6-1.4-0.9-2.2-0.9h-0.1c-1,0.1-2,0.5-2.6,1.4c-0.5,0.7-0.8,1.4-0.9,2.2c-0.1,1.1,0.2,2.1,0.8,3c0.5,0.6,1.1,1.1,1.8,1.3
			c0.4,0.1,0.8,0.2,1.2,0.2c0.3,0,0.7-0.1,1-0.2c0.9-0.3,1.7-1.1,2-2l0,0l-0.2-0.1c-0.3,0.8-1,1.4-1.8,1.6c-0.2,0.1-0.4,0.1-0.6,0.1
			c-0.6,0-1.2-0.2-1.7-0.7c-0.4-0.4-0.7-1-0.8-1.6c-0.2-0.7-0.2-1.3-0.2-2L60,133.4L60,133.4L60,133.4z M54.7,132.5
			c0-0.2,0.1-0.4,0.2-0.5c0.1-0.2,0.2-0.4,0.3-0.6c0.3-0.4,0.7-0.7,1.2-0.8c0.6-0.1,1.3,0.1,1.7,0.6c0.4,0.5,0.7,1.2,0.6,1.9l0,0
			h-4.1C54.6,132.8,54.7,132.6,54.7,132.5L54.7,132.5z M66.7,132.9c-0.5,0.2-1,0.3-1.5,0.4l0,0c-0.8,0.2-1.5,0.4-2.2,0.7
			c-0.8,0.4-1.3,1.2-1.3,2.1c0,0.1,0,0.2,0,0.3c0,0.3,0.1,0.6,0.3,0.9c0.3,0.4,0.7,0.7,1.1,0.8c0.2,0.1,0.5,0.1,0.7,0.1
			c0.7,0,1.4-0.2,2-0.6l0.7-0.4l0.2-0.1v0.2c0,0.4,0.3,0.6,0.9,0.7h1.2v-0.1c-0.2,0-0.4-0.1-0.6-0.4c-0.1-0.3-0.2-0.7-0.2-1.1
			c0-0.2,0-4.1,0-4.3c0-0.3,0-0.5-0.1-0.7c-0.1-0.2-0.2-0.4-0.3-0.6c-0.4-0.4-1-0.7-1.6-0.8c-0.3-0.1-0.6-0.1-0.9-0.1
			c-0.8,0-1.5,0.2-2.1,0.6c-0.2,0.2-0.4,0.3-0.6,0.5c-0.3,0.3-0.3,0.7-0.2,1.1c0.1,0.2,0.3,0.3,0.5,0.3c0.2,0,0.3-0.1,0.4-0.2
			c0.1-0.2,0.2-0.4,0.2-0.6l0,0c0-0.1,0.1-0.3,0.1-0.4c0.1-0.3,0.4-0.6,0.7-0.8c0.2-0.1,0.5-0.2,0.8-0.2c0.4,0,0.7,0.1,1.1,0.3
			c0.3,0.2,0.5,0.4,0.6,0.7c0.1,0.3,0.2,0.7,0.2,1L66.7,132.9L66.7,132.9z M66,137.2c-0.4,0.1-0.8,0.2-1.3,0.2l0,0
			c-0.3,0-0.6,0-0.9-0.2c-0.5-0.2-0.8-0.7-0.8-1.3l0,0c0-0.5,0.1-0.9,0.5-1.3c0.5-0.5,1.2-0.9,1.9-1c0.4-0.1,0.8-0.2,1.1-0.4h0.1
			v3.6l0,0C66.4,137.1,66.2,137.2,66,137.2L66,137.2L66,137.2z M80.8,132.4c0,0.2,0,4.1,0,4.1c0.1,0.4-0.1,0.9-0.3,1.3l-0.1,0.1
			c-0.1,0.1-0.2,0.1-0.3,0.1c0,0-0.1,0-0.1,0H80v0.1h3.2V138l0,0c-0.2,0-0.4-0.1-0.6-0.2c-0.2-0.4-0.3-0.8-0.3-1.3v-4.1
			c0-0.6-0.2-1.2-0.6-1.6c-0.4-0.4-0.9-0.7-1.5-0.6H80c-1,0.1-2,0.5-2.7,1.3l-0.1,0.1v-0.1c-0.1-0.3-0.2-0.5-0.4-0.7
			c-0.4-0.4-1-0.7-1.7-0.6c-1,0.1-1.9,0.6-2.5,1.3l-0.2,0.2v-1.4h-0.2l-2.1,0.4v0.1h0.1c0.2,0,0.4,0.1,0.6,0.2
			c0.3,0.4,0.4,0.9,0.3,1.4v4.1c0.1,0.4-0.1,0.9-0.3,1.3c-0.1,0.1-0.3,0.2-0.5,0.2h-0.2v0.1h3.2v-0.1h-0.1c-0.2,0-0.4-0.1-0.6-0.2
			c-0.2-0.4-0.3-0.8-0.3-1.3V132l0,0c0.5-0.8,1.3-1.3,2.3-1.4c0.8,0,1.3,0.6,1.3,1.7c0,0.2,0,4,0,4.1c0,0.4-0.1,0.9-0.3,1.3
			c-0.1,0.1-0.3,0.2-0.6,0.2h0v0.1h3.2v-0.1h-0.1c-0.2,0-0.4-0.1-0.6-0.2c-0.2-0.4-0.4-0.8-0.3-1.3v-4.1c0-0.2,0-0.3,0-0.5l0,0l0,0
			c0.5-0.7,1.4-1.1,2.2-1.2c0.8,0,1.3,0.6,1.3,1.7L80.8,132.4L80.8,132.4z M85.7,138.2c0.5,0,0.8-0.4,0.8-0.9c0-0.5-0.4-0.8-0.8-0.8
			c-0.5,0-0.8,0.4-0.8,0.8C84.9,137.8,85.2,138.2,85.7,138.2z M99.3,131.5c0.5-0.1,0.9-0.2,1.4-0.3c0.4-0.1,0.7-0.3,1-0.6
			c0.3-0.2,0.5-0.5,0.7-0.8c0.1-0.2,0.2-0.5,0.2-0.8c0-1.6-1.4-2.4-3.8-2.4h-4.8v0.1h0.1c0.2,0,0.5,0.1,0.6,0.2
			c0.3,0.4,0.4,0.8,0.3,1.3v8.2c0.1,0.5-0.1,0.9-0.3,1.3c-0.2,0.2-0.4,0.2-0.7,0.2l0,0v0.1h5.3c2.8,0,4.4-1.2,4.4-3.3
			c0-0.3,0-0.6-0.2-0.9c-0.1-0.3-0.2-0.6-0.4-0.8c-0.2-0.2-0.4-0.4-0.7-0.6c-0.3-0.2-0.6-0.4-1-0.5
			C100.6,131.7,100,131.6,99.3,131.5L99.3,131.5z M96.5,126.9h2.2c0.6,0,1.2,0.2,1.7,0.6c0.4,0.4,0.6,1,0.6,1.6
			c0,0.7-0.2,1.3-0.7,1.8c-0.6,0.4-1.3,0.7-2,0.6h-1.8L96.5,126.9L96.5,126.9z M101.1,137c-0.6,0.5-1.4,0.8-2.1,0.8h-2.5v-6.1h1.6
			c2.4,0,3.7,1.1,3.7,3.1C101.9,135.5,101.6,136.4,101.1,137L101.1,137L101.1,137z M110.5,136.8L110.5,136.8
			C110.5,136.8,110.5,136.8,110.5,136.8l0.1-0.2v1.4h2.3v-0.1l0,0c-0.2,0-0.5-0.1-0.6-0.3c-0.3-0.5-0.4-1.1-0.4-1.6v-5.8h-0.2
			l-2.1,0.4v0.1h0.1c0.3,0,0.5,0.1,0.7,0.3c0.1,0.2,0.2,0.4,0.2,0.6c0,0.2,0,0.3,0,0.5v4c-0.5,0.8-1.3,1.4-2.2,1.5
			c-0.8,0-1.3-0.6-1.3-1.7v-5.7h-0.2l-2.1,0.4v0.1h0.2c0.2,0,0.4,0.1,0.5,0.2c0.2,0.3,0.4,0.8,0.3,1.2v3c-0.1,0.9,0.1,1.8,0.6,2.5
			c0.4,0.4,1,0.6,1.5,0.6h0.1C109,138.1,109.9,137.6,110.5,136.8L110.5,136.8z M115.8,128.7c0.5,0,0.8-0.4,0.8-0.8
			c0-0.5-0.4-0.8-0.8-0.8c-0.5,0-0.8,0.4-0.8,0.8l0,0C114.9,128.3,115.3,128.7,115.8,128.7z M117.5,137.9c-0.2,0-0.4-0.1-0.6-0.2
			c-0.2-0.4-0.3-0.8-0.3-1.3v-6.3h-0.2l-2.1,0.4v0.1h0.1c0.2,0,0.4,0.1,0.6,0.2c0.3,0.4,0.4,0.8,0.3,1.3v4.3c0,0.4-0.1,0.9-0.3,1.3
			c-0.2,0.2-0.4,0.2-0.6,0.2h-0.1v0.1L117.5,137.9L117.5,137.9L117.5,137.9L117.5,137.9z M118.7,127.2L118.7,127.2
			c0.3,0,0.5,0.1,0.7,0.2c0.3,0.4,0.4,0.8,0.3,1.3v7.7c0,0.4-0.1,0.9-0.3,1.3c-0.1,0.2-0.3,0.2-0.6,0.2h-0.1v0.1h3.2v-0.1l0,0
			c-0.2,0-0.4-0.1-0.6-0.2c-0.2-0.4-0.3-0.8-0.3-1.3v-9.7h-0.2l-2.1,0.4L118.7,127.2L118.7,127.2z M130.9,137.9
			c-0.5,0-0.8-0.3-0.9-0.9l0,0v-10.3h-0.2l-2.1,0.4v0.1l0,0c0.2,0,0.4,0.1,0.6,0.3c0.3,0.4,0.4,0.8,0.3,1.3v2.3l-0.1-0.1
			c-0.5-0.5-1.2-0.8-2-0.9c-2,0-3.4,1.6-3.4,3.9v0.3c0.1,2.3,1.5,3.9,3.4,3.9c0.7,0,1.4-0.3,1.9-0.9l0.1-0.1l0.5,0.9L130.9,137.9
			L130.9,137.9L130.9,137.9z M128.7,136.8c0,0-0.2,0.2-0.3,0.3c-0.2,0.2-0.4,0.3-0.7,0.4c-0.3,0.1-0.5,0.1-0.8,0.1
			c-0.6,0-1.2-0.2-1.6-0.7c-0.2-0.2-0.3-0.5-0.4-0.8c-0.1-0.3-0.2-0.7-0.2-1c-0.1-0.8-0.1-1.5,0-2.3c0-0.3,0.1-0.6,0.2-0.9
			c0.1-0.3,0.2-0.5,0.4-0.7c0.1-0.2,0.3-0.3,0.5-0.4c0.3-0.1,0.6-0.2,0.9-0.2c0.7,0,1.4,0.3,1.9,0.8l0,0L128.7,136.8L128.7,136.8
			L128.7,136.8z M133.8,138.2c0.5,0,0.8-0.4,0.8-0.9s-0.4-0.8-0.9-0.8c-0.5,0-0.8,0.4-0.8,0.8C133,137.8,133.4,138.2,133.8,138.2z
			 M145.7,138h4.5v-2H150l-0.1,0.2c-0.5,1.1-1.3,1.6-2.8,1.6h-2.5v-9.6c-0.1-0.5,0.1-0.9,0.4-1.3c0.2-0.2,0.4-0.2,0.6-0.2h0.1v-0.1
			H142v0.1h0.1c0.2,0,0.5,0.1,0.6,0.2c0.3,0.4,0.4,0.8,0.4,1.3v8.2c0.1,0.5-0.1,0.9-0.4,1.3c-0.2,0.2-0.4,0.2-0.7,0.2l0,0v0
			L145.7,138L145.7,138z M153.2,128.7c0.5,0,0.8-0.4,0.8-0.9c0-0.5-0.4-0.8-0.9-0.8c-0.5,0-0.8,0.4-0.8,0.8
			C152.4,128.3,152.7,128.7,153.2,128.7z M154.9,137.9c-0.2,0-0.4-0.1-0.6-0.2c-0.2-0.4-0.3-0.8-0.3-1.3v-6.3h-0.2l-2.1,0.4v0.1h0.1
			c0.2,0,0.4,0.1,0.6,0.2c0.3,0.4,0.4,0.8,0.3,1.3v4.3c0,0.4-0.1,0.9-0.3,1.3c-0.2,0.2-0.4,0.2-0.6,0.2h-0.1v0.1L154.9,137.9
			L154.9,137.9L154.9,137.9L154.9,137.9z M161.4,130.2v0.1h0.1c0.2,0,0.4,0.1,0.5,0.2c0.2,0.4,0.2,0.8,0,1.1c0,0.1-1,2.9-1.4,4.2
			c-0.1,0.4-0.2,0.6-0.2,0.6l-0.1,0.1l-2.2-5.2c-0.2-0.3-0.2-0.7,0-1c0.1-0.2,0.3-0.3,0.5-0.2l0,0v-0.1h-3v0.1
			c0.4,0,0.7,0.2,0.9,0.9l2.9,6.9h0.6l2.3-6.6c0.3-0.7,0.7-1.1,1.1-1.1l0,0v-0.1L161.4,130.2z M171.1,133.3c0-0.9-0.4-1.8-1-2.4
			c-0.6-0.6-1.4-0.9-2.2-0.9h-0.1c-1,0-2,0.5-2.6,1.4c-0.5,0.7-0.8,1.4-0.9,2.2c-0.1,1.1,0.2,2.1,0.8,3c0.5,0.6,1.1,1.1,1.9,1.3
			c0.4,0.1,0.8,0.2,1.2,0.2c0.3,0,0.7-0.1,1-0.2c0.9-0.3,1.7-1.1,2-2l0,0l-0.2-0.1c-0.3,0.8-1,1.4-1.8,1.6c-0.2,0.1-0.4,0.1-0.6,0.1
			c-0.6,0-1.2-0.2-1.7-0.7c-0.4-0.4-0.7-1-0.9-1.6c-0.2-0.7-0.2-1.3-0.2-2L171.1,133.3L171.1,133.3L171.1,133.3z M165.8,132.4
			c0-0.2,0.1-0.4,0.2-0.5c0.1-0.2,0.2-0.4,0.4-0.6c0.3-0.4,0.7-0.7,1.2-0.8c0.1,0,0.2,0,0.3,0c0.5,0,1,0.2,1.4,0.6
			c0.4,0.5,0.7,1.2,0.6,1.9l0,0h-4.1C165.7,132.8,165.8,132.6,165.8,132.4L165.8,132.4z M173.8,138.2c0.5,0,0.8-0.4,0.8-0.9
			s-0.4-0.8-0.9-0.8c-0.5,0-0.8,0.4-0.8,0.8C173,137.8,173.4,138.2,173.8,138.2z"/>
		<path fill="#FFFFFF" d="M170,8.6V1.3h-3.1V0.2h7.4v1.1h-3.1v7.3H170z M175.3,8.6V0.2h1.1l3,3.5l3-3.5h1.1v8.4h-1.1V2l-2.9,3.4
			L176.5,2v6.6L175.3,8.6z"/>
		<path fill="#FFFFFF" d="M135.7,16.7c0.1-2.7-0.1-5.4-0.6-8.1c-0.6-3-2.7-5.5-5.6-6.6c-1.6-0.5-3.2-0.8-4.9-0.9V0H160v1.2
			c-2.3,0.1-4.5,0.4-6.7,0.9c-1.3,0.5-2.4,1.2-3.3,2.2c-1.1,1.2-1.9,2.7-2.2,4.3c-0.5,2.6-0.7,5.3-0.6,8v39.2
			c-0.1,2.7,0.1,5.4,0.6,8c0.6,3,2.7,5.5,5.5,6.6c2.2,0.5,4.5,0.8,6.7,0.9v1.2h-35.3v-1.2c1.7,0,3.3-0.3,4.9-0.9
			c1.3-0.5,2.4-1.2,3.3-2.2c1.1-1.2,1.9-2.7,2.2-4.3c0.5-2.7,0.7-5.4,0.6-8.1L135.7,16.7L135.7,16.7z"/>
		<path fill="#FFFFFF" d="M78.6,16.7c0.1-2.7-0.1-5.4-0.6-8.1c-0.6-3-2.7-5.5-5.6-6.6c-1.6-0.5-3.2-0.8-4.9-0.9V0h33.3v1.2
			c-1.6,0.1-3.3,0.3-4.8,0.9c-1.3,0.5-2.4,1.2-3.3,2.2c-1.1,1.2-1.9,2.7-2.2,4.3c-0.5,2.6-0.7,5.3-0.6,8v39.2
			c-0.1,2.7,0.1,5.4,0.6,8c0.6,3,2.7,5.5,5.5,6.6c1.6,0.5,3.2,0.8,4.8,0.9v1.2H67.5v-1c1.7-0.1,3.3-0.4,4.9-1
			c1.3-0.5,2.4-1.2,3.3-2.2c1.1-1.2,1.9-2.7,2.2-4.3c0.5-2.7,0.7-5.4,0.6-8.1L78.6,16.7L78.6,16.7z"/>
		<path fill="#FFFFFF" d="M171.2,29.3c-41.6,2.9-82.6,10.7-122.4,23l-0.1-4l2.6-0.8C90.4,35,130.5,27,171.3,21.7
			C171.3,21.7,171.3,28.4,171.2,29.3C171.3,29.3,171.3,29.3,171.2,29.3L171.2,29.3z"/>
		<path fill="#FFFFFF" d="M45.3,27.6c0.1-2.7-0.1-5.4-0.6-8c-0.3-1.6-1.1-3.1-2.2-4.2c-0.9-1-2.1-1.7-3.3-2.2
			c-1.6-0.5-3.2-0.8-4.9-0.8v-1.2h33.4v1.2c-1.6,0-3.3,0.3-4.8,0.8c-1.3,0.5-2.4,1.2-3.3,2.2c-1.1,1.2-1.9,2.7-2.2,4.3
			c-0.5,2.6-0.7,5.3-0.6,8V56c-0.1,2.7,0.1,5.3,0.6,7.9c0.4,1.6,1.1,3.1,2.2,4.3c0.9,0.9,2.1,1.7,3.3,2.2c1.6,0.6,3.2,0.9,4.8,1v1
			H34.2v-1c1.7-0.1,3.3-0.4,4.9-1c1.3-0.5,2.4-1.2,3.3-2.2c1.1-1.2,1.9-2.6,2.2-4.2c0.5-2.6,0.7-5.3,0.6-7.9V27.6z"/>
		<path fill="#FFFFFF" d="M199.9,97.1c-1.5-0.1-2.9,0.4-4,1.3c-0.9,0.8-1.4,2-1.3,3.2c0,1.8,1.2,3.3,3.5,4.4c0.4,0.2,1,0.5,1.8,0.8
			c0.7,0.3,1.4,0.6,2.1,0.9c0.5,0.3,0.9,0.6,1.3,1c0.3,0.4,0.4,0.8,0.5,1.3c0.1,0.5,0,1-0.2,1.5c-0.2,0.5-0.5,0.9-0.9,1.2
			c-0.8,0.5-1.8,0.8-2.8,0.7c-1.3,0-2.6-0.5-3.5-1.4c-0.8-0.9-1.4-2-1.7-3.2h-0.4v5.1h0.4c0-0.4,0.1-0.7,0.4-1
			c0.2-0.2,0.4-0.3,0.7-0.2c0.3,0.1,0.7,0.3,1,0.5c1,0.6,2,0.9,3.2,1c1.6,0.2,3.2-0.4,4.4-1.4c1.1-1,1.7-2.3,1.7-3.8
			c0.1-0.9-0.1-1.8-0.5-2.6c-0.5-0.7-1.1-1.3-1.8-1.7c-1-0.5-2-0.9-3-1.3c-1-0.3-2-0.8-2.9-1.4c-0.3-0.3-0.5-0.7-0.6-1.1
			c-0.1-0.5-0.1-0.9,0-1.4c0.1-0.4,0.3-0.8,0.7-1.1c0.6-0.5,1.4-0.8,2.2-0.8c1.2-0.1,2.4,0.4,3.1,1.4c0.7,0.9,1.1,1.9,1.4,3h0.4
			l-0.4-4.6h-0.4c0,0.7-0.6,0.8-1.6,0.3C201.7,97.3,200.8,97.1,199.9,97.1L199.9,97.1z"/>
		<path fill="#FFFFFF" d="M177.1,97.3v0.5c1-0.2,1.9,0.5,2.1,1.5c0,0.2,0,0.4,0,0.6v11.5c0.1,1-0.6,1.9-1.6,2.1c-0.2,0-0.3,0-0.5,0
			v0.4h14.3l0.3-4.7h-0.4c-0.2,2.9-2,4.3-5.5,4.3c-2.5,0-3.7-0.9-3.7-2.8v-5.4h2.1c1.6,0,2.4,0.8,2.4,2.5h0.4v-5.5h-0.4
			c0.2,1.2-0.6,2.3-1.8,2.5c-0.2,0-0.4,0-0.6,0h-2.1v-6.9h4.2c2.5,0,3.8,1.2,4,3.5l0.4-0.1l-0.3-4L177.1,97.3z"/>
		<path fill="#FFFFFF" d="M153.8,97.3v0.5c1-0.1,1.9,0.6,2.1,1.6c0,0.2,0,0.4,0,0.5v11.5c0.2,1-0.5,2-1.5,2.1c-0.2,0-0.4,0-0.5,0
			v0.4h4.7v-0.4c-1,0.1-2-0.6-2.1-1.7c0-0.2,0-0.3,0-0.5V99.1l6.7,14.8h0.8l6.1-14.8v12.3c0.1,1-0.6,2-1.6,2.1c-0.2,0-0.3,0-0.5,0
			v0.4h7.1v-0.4c-1,0.1-1.9-0.6-2.1-1.6c0-0.2,0-0.3,0-0.5V99.8c-0.1-1,0.5-1.9,1.6-2.1c0.2,0,0.4,0,0.5,0v-0.5h-4.8l-5.3,13.1
			l-5.3-12c-0.2-0.4-0.3-0.7-0.3-1.1L153.8,97.3z"/>
		<path fill="#FFFFFF" d="M92.1,97.3v0.5c1-0.2,1.9,0.5,2.1,1.5c0,0.2,0,0.4,0,0.6v11.5c0.1,1-0.6,1.9-1.6,2.1c-0.1,0-0.3,0-0.4,0
			v0.4h14.3l0.3-4.7h-0.4c-0.2,2.9-2,4.3-5.5,4.3c-2.5,0-3.7-0.9-3.7-2.8v-5.4h2.1c1.6,0,2.4,0.8,2.4,2.5h0.4v-5.5h-0.4
			c0.2,1.2-0.6,2.3-1.8,2.5c-0.2,0-0.4,0-0.6,0h-2.1v-6.9h4.2c2.5,0,3.8,1.2,3.9,3.5l0.4-0.1l-0.3-4L92.1,97.3z"/>
		<path fill="#FFFFFF" d="M76.2,97.3v0.5c1-0.1,1.9,0.6,2.1,1.6c0,0.2,0,0.4,0,0.5v11.5c0.1,1-0.5,1.9-1.5,2.1c-0.2,0-0.3,0-0.5,0
			v0.4h14.3l0.3-4.7h-0.4c-0.1,0.9-0.5,1.8-1.1,2.6c-0.5,0.6-1.2,1.1-1.9,1.4c-0.8,0.3-1.6,0.4-2.5,0.4c-2.5,0-3.7-0.9-3.7-2.8V99.8
			c-0.1-1,0.5-1.9,1.6-2.1c0.2,0,0.3,0,0.5,0v-0.5H76.2z"/>
		<path fill="#FFFFFF" d="M58,97.3v0.5c0.9,0,1.8,0.7,2.7,2.1l3.1,5c0.3,0.5,0.6,1,0.8,1.5c0.2,0.7,0.2,1.4,0.2,2.1v2.9
			c0.1,1-0.6,1.9-1.6,2.1c-0.2,0-0.4,0-0.5,0v0.4h7.1v-0.4c-1,0.2-2-0.5-2.1-1.6c0-0.2,0-0.3,0-0.5v-5.2c0-0.3,0-0.7,0.1-1
			c0.1-0.2,0.1-0.4,0.3-0.5l3.3-4.8c1-1.4,2-2.1,3.1-2.1v-0.4h-4.1v0.5c1.3,0,1.4,0.7,0.4,2.1l-3.4,4.9l-3.1-4.8
			c-0.9-1.4-0.7-2.1,0.7-2.1v-0.5H58z"/>
		<path fill="#FFFFFF" d="M40.3,97.3l-0.3,4h0.4c0.2-2.4,1.4-3.5,3.7-3.5h2.7v13.6c0.1,1-0.6,1.9-1.6,2.1c-0.2,0-0.3,0-0.5,0v0.4
			h7.1v-0.4c-1,0.1-1.9-0.5-2.1-1.5c0-0.2,0-0.3,0-0.5V97.8h2.7c2.3,0,3.5,1.2,3.7,3.5h0.4l-0.3-4L40.3,97.3z"/>
		<path fill="#FFFFFF" d="M32.7,97.1c-1.5-0.1-2.9,0.4-4,1.3c-0.9,0.8-1.4,2-1.3,3.2c0,1.8,1.2,3.3,3.5,4.4c0.4,0.2,1,0.5,1.8,0.8
			c0.7,0.3,1.4,0.6,2.1,0.9c0.5,0.3,0.9,0.6,1.3,1c0.3,0.4,0.4,0.8,0.5,1.3c0,0.5,0,1-0.2,1.5c-0.2,0.5-0.5,0.9-0.9,1.2
			c-0.8,0.5-1.8,0.8-2.8,0.7c-1.3,0-2.6-0.6-3.5-1.5c-0.8-0.9-1.4-2-1.7-3.2h-0.4v5.1h0.4c0-0.4,0.1-0.7,0.4-1
			c0.2-0.2,0.4-0.3,0.7-0.2c0.3,0.1,0.7,0.3,1,0.5c1,0.6,2.1,0.9,3.2,1c1.6,0.2,3.2-0.4,4.4-1.4c1.1-1,1.7-2.3,1.7-3.7
			c0.1-0.9-0.1-1.8-0.5-2.6c-0.5-0.7-1.1-1.3-1.8-1.7c-1-0.5-2-0.9-3-1.3c-1-0.3-2-0.8-2.9-1.4c-0.3-0.3-0.5-0.7-0.6-1.1
			c-0.1-0.5-0.1-0.9,0-1.4c0.1-0.4,0.3-0.8,0.7-1.1c0.6-0.5,1.4-0.8,2.2-0.8c1.2-0.1,2.3,0.4,3.1,1.4c0.7,0.9,1.1,1.9,1.4,3h0.4
			l-0.3-4.6h-0.5c0,0.7-0.5,0.8-1.6,0.3C34.5,97.3,33.6,97.1,32.7,97.1L32.7,97.1z"/>
		<path fill="#FFFFFF" d="M8.8,97.3v0.5c1-0.1,1.9,0.6,2,1.6c0,0.2,0,0.3,0,0.5v11.5c0.1,1-0.5,1.9-1.6,2.1c-0.1,0-0.3,0-0.4,0v0.4
			h4.7v-0.4c-1,0.1-1.9-0.6-2.1-1.6c0-0.2,0-0.4,0-0.5V99.1l11,14.8h0.9v-14c-0.2-1,0.5-1.9,1.5-2.1c0.2,0,0.4,0,0.6,0v-0.5h-4.7
			v0.5c1-0.1,1.9,0.6,2.1,1.6c0,0.2,0,0.3,0,0.5v8.9c-3.5-4.7-6-8.1-7.6-10.4c-0.3-0.3-0.5-0.7-0.6-1.1H8.8z"/>
		<path fill="#FFFFFF" d="M0,97.3v0.5c1-0.1,1.9,0.6,2.1,1.6c0,0.2,0,0.3,0,0.5v11.5c0.1,1-0.5,1.9-1.6,2.1c-0.2,0-0.3,0-0.5,0v0.4
			h7v-0.4c-1,0.1-1.9-0.6-2-1.7c0-0.1,0-0.3,0-0.4V99.9c-0.1-1,0.5-1.9,1.6-2.1c0.1,0,0.3,0,0.4,0v-0.5H0z"/>
		<path fill="#FFFFFF" d="M129.5,100.9c0-0.6,0-1.2-0.1-1.8c-0.1-0.4-0.2-0.7-0.5-1c-0.2-0.2-0.5-0.4-0.8-0.5
			c-0.4-0.1-0.7-0.2-1.1-0.2v-0.3h7.8v0.3c-0.4,0-0.8,0.1-1.1,0.2c-0.3,0.1-0.6,0.3-0.8,0.5c-0.3,0.3-0.4,0.6-0.5,1
			c-0.1,0.6-0.2,1.2-0.1,1.8v9c0,0.6,0,1.2,0.1,1.8c0.1,0.4,0.3,0.7,0.5,1c0.2,0.2,0.5,0.4,0.8,0.5c0.4,0.1,0.7,0.2,1.1,0.2v0.3
			h-7.8v-0.3c0.4,0,0.8-0.1,1.1-0.2c0.3-0.1,0.6-0.3,0.8-0.5c0.3-0.3,0.4-0.6,0.5-1c0.1-0.6,0.2-1.2,0.1-1.8V100.9L129.5,100.9z"/>
		<path fill="#FFFFFF" d="M134.9,103.7h-0.1c-5.7,0.6-11.2,1.8-16.7,3.5v-0.7l0.4-0.1c5.3-1.7,10.8-2.9,16.3-3.7h0.1L134.9,103.7
			L134.9,103.7z"/>
		<path fill="#FFFFFF" d="M117.5,100.9c0-0.6,0-1.2-0.1-1.8c-0.1-0.4-0.3-0.7-0.5-1c-0.2-0.2-0.5-0.4-0.8-0.5
			c-0.4-0.1-0.8-0.2-1.1-0.2v-0.3h7.8v0.3c-0.4,0-0.8,0.1-1.1,0.2c-0.7,0.3-1.1,0.8-1.3,1.5c-0.1,0.6-0.2,1.2-0.1,1.8v9
			c0,0.6,0,1.2,0.1,1.8c0.1,0.4,0.3,0.7,0.5,1c0.2,0.2,0.5,0.4,0.8,0.5c0.4,0.1,0.7,0.2,1.1,0.2v0.3h-7.8v-0.3
			c0.4,0,0.8-0.1,1.1-0.2c0.3-0.1,0.6-0.3,0.8-0.5c0.3-0.3,0.4-0.6,0.5-1c0.1-0.6,0.2-1.2,0.1-1.8L117.5,100.9L117.5,100.9z"/>
		<path fill="#FFFFFF" d="M144.3,97.7c1.6,0,3.1,0.8,3.9,2.1c1,1.7,1.5,3.7,1.5,5.7c0,1.4-0.2,2.8-0.7,4.1c-0.4,1.2-1.1,2.2-2,3
			c-0.8,0.7-1.7,1.1-2.7,1.1c-1.6,0-3-0.9-3.8-2.2c-1.1-1.6-1.7-3.6-1.6-5.5c0-1.4,0.2-2.8,0.6-4.1c0.4-1.1,1-2.2,1.9-3
			C142.1,98.1,143.2,97.7,144.3,97.7L144.3,97.7z M144.3,97c-1.6,0-3.2,0.5-4.6,1.3c-1.3,0.8-2.4,1.9-3.1,3.2c-0.7,1.4-1,2.9-1,4.4
			c0,2.2,0.9,4.4,2.6,5.9c1.6,1.6,3.8,2.4,6.1,2.4c1.5,0,3.1-0.4,4.4-1.2c1.3-0.8,2.4-1.9,3.2-3.2c0.8-1.4,1.2-2.9,1.1-4.5
			c0.3-4.3-3-8.1-7.3-8.4C145.2,97,144.7,97,144.3,97L144.3,97z"/>
	</g>
</g>
</svg>
